<svg xmlns="http://www.w3.org/2000/svg" viewBox="0 0 400 600" role="img" aria-label="Dune original geometric artwork"><defs><radialGradient id="sphere" cx="35%" cy="25%"><stop stop-color="#fae4ba"/><stop offset=".4" stop-color="#d1a36c"/><stop offset="1" stop-color="#6b3b25"/></radialGradient><linearGradient id="shade" x2="0" y2="1"><stop stop-color="#6b3b25" stop-opacity="0"/><stop offset="1" stop-color="#6b3b25"/></linearGradient></defs><rect width="400" height="600" fill="#6b3b25"/><circle cx="75" cy="287" r="0.8" fill="#fae4ba" opacity="0.38"/><circle cx="28" cy="437" r="0.6" fill="#fae4ba" opacity="0.29"/><circle cx="308" cy="421" r="0.6" fill="#fae4ba" opacity="0.58"/><circle cx="324" cy="486" r="1.2" fill="#fae4ba" opacity="0.14"/><circle cx="85" cy="474" r="0.6" fill="#fae4ba" opacity="0.09"/><circle cx="162" cy="53" r="0.8" fill="#fae4ba" opacity="0.19"/><circle cx="180" cy="339" r="0.8" fill="#fae4ba" opacity="0.35"/><circle cx="245" cy="364" r="1.2" fill="#fae4ba" opacity="0.53"/><circle cx="116" cy="64" r="1.2" fill="#fae4ba" opacity="0.44"/><circle cx="94" cy="503" r="0.6" fill="#fae4ba" opacity="0.03"/><circle cx="164" cy="440" r="0.6" fill="#fae4ba" opacity="0.37"/><circle cx="211" cy="554" r="0.6" fill="#fae4ba" opacity="0.25"/><circle cx="336" cy="362" r="0.6" fill="#fae4ba" opacity="0.07"/><circle cx="59" cy="402" r="0.8" fill="#fae4ba" opacity="0.56"/><circle cx="111" cy="35" r="0.6" fill="#fae4ba" opacity="0.33"/><circle cx="341" cy="396" r="1.2" fill="#fae4ba" opacity="0.36"/><circle cx="170" cy="267" r="1.2" fill="#fae4ba" opacity="0.50"/><circle cx="322" cy="489" r="0.6" fill="#fae4ba" opacity="0.48"/><circle cx="253" cy="475" r="0.8" fill="#fae4ba" opacity="0.58"/><circle cx="90" cy="305" r="0.8" fill="#fae4ba" opacity="0.47"/><circle cx="99" cy="499" r="0.6" fill="#fae4ba" opacity="0.14"/><circle cx="172" cy="229" r="1.2" fill="#fae4ba" opacity="0.24"/><circle cx="149" cy="418" r="0.6" fill="#fae4ba" opacity="0.17"/><circle cx="177" cy="197" r="0.6" fill="#fae4ba" opacity="0.46"/><circle cx="145" cy="139" r="1.2" fill="#fae4ba" opacity="0.21"/><circle cx="35" cy="198" r="1.2" fill="#fae4ba" opacity="0.05"/><circle cx="299" cy="267" r="1.2" fill="#fae4ba" opacity="0.47"/><circle cx="82" cy="393" r="1.2" fill="#fae4ba" opacity="0.57"/><circle cx="120" cy="556" r="1.2" fill="#fae4ba" opacity="0.46"/><circle cx="120" cy="463" r="0.8" fill="#fae4ba" opacity="0.28"/><circle cx="32" cy="369" r="0.6" fill="#fae4ba" opacity="0.04"/><circle cx="347" cy="397" r="0.8" fill="#fae4ba" opacity="0.56"/><circle cx="65" cy="122" r="0.6" fill="#fae4ba" opacity="0.11"/><circle cx="341" cy="233" r="1.2" fill="#fae4ba" opacity="0.27"/><circle cx="276" cy="260" r="0.8" fill="#fae4ba" opacity="0.36"/><circle cx="260" cy="282" r="0.6" fill="#fae4ba" opacity="0.37"/><circle cx="123" cy="78" r="0.8" fill="#fae4ba" opacity="0.55"/><circle cx="298" cy="401" r="0.6" fill="#fae4ba" opacity="0.49"/><circle cx="84" cy="168" r="0.6" fill="#fae4ba" opacity="0.16"/><circle cx="195" cy="512" r="0.8" fill="#fae4ba" opacity="0.13"/><circle cx="339" cy="41" r="1.2" fill="#fae4ba" opacity="0.12"/><circle cx="384" cy="143" r="0.6" fill="#fae4ba" opacity="0.35"/><circle cx="70" cy="99" r="0.6" fill="#fae4ba" opacity="0.33"/><circle cx="214" cy="203" r="1.2" fill="#fae4ba" opacity="0.13"/><circle cx="196" cy="190" r="0.6" fill="#fae4ba" opacity="0.49"/><circle cx="226" cy="136" r="1.2" fill="#fae4ba" opacity="0.05"/><circle cx="197" cy="154" r="0.8" fill="#fae4ba" opacity="0.44"/><circle cx="59" cy="396" r="0.8" fill="#fae4ba" opacity="0.36"/><circle cx="136" cy="342" r="1.2" fill="#fae4ba" opacity="0.51"/><circle cx="266" cy="78" r="0.6" fill="#fae4ba" opacity="0.25"/><circle cx="102" cy="516" r="0.6" fill="#fae4ba" opacity="0.15"/><circle cx="118" cy="86" r="1.2" fill="#fae4ba" opacity="0.47"/><circle cx="280" cy="504" r="0.8" fill="#fae4ba" opacity="0.38"/><circle cx="263" cy="423" r="1.2" fill="#fae4ba" opacity="0.54"/><circle cx="42" cy="430" r="1.2" fill="#fae4ba" opacity="0.17"/><circle cx="157" cy="449" r="0.8" fill="#fae4ba" opacity="0.17"/><circle cx="191" cy="294" r="0.6" fill="#fae4ba" opacity="0.11"/><circle cx="106" cy="391" r="1.2" fill="#fae4ba" opacity="0.52"/><circle cx="299" cy="448" r="0.8" fill="#fae4ba" opacity="0.28"/><circle cx="78" cy="497" r="0.8" fill="#fae4ba" opacity="0.46"/><circle cx="196" cy="164" r="1.2" fill="#fae4ba" opacity="0.43"/><circle cx="300" cy="453" r="0.6" fill="#fae4ba" opacity="0.24"/><circle cx="327" cy="579" r="0.8" fill="#fae4ba" opacity="0.48"/><circle cx="239" cy="281" r="0.8" fill="#fae4ba" opacity="0.00"/><circle cx="112" cy="391" r="1.2" fill="#fae4ba" opacity="0.59"/><text x="30" y="44" fill="#fae4ba" opacity=".85" font-family="Arial,sans-serif" font-size="12" letter-spacing="3">NEO4FLIX COLLECTION</text><text x="30" y="70" fill="#fae4ba" opacity=".65" font-family="Arial,sans-serif" font-size="11" letter-spacing="2">2021 · NO. 03</text><circle cx="215" cy="260" r="113" fill="url(#sphere)"/><path d="M-20 355 Q125 280 270 362 T430 312 V600H0Z" fill="#6b3b25"/><path d="M-20 395 Q110 323 267 405 T430 370 V600H0Z" fill="#d1a36c" opacity=".45"/><rect x="0" y="385" width="400" height="215" fill="url(#shade)"/><text x="30" y="492" fill="#fae4ba" font-family="Arial,sans-serif" font-size="37" font-weight="700" letter-spacing="-1.2">DUNE</text><path d="M30 574H370" stroke="#fae4ba" opacity=".3"/></svg>