<svg xmlns="http://www.w3.org/2000/svg" viewBox="0 0 400 600" role="img" aria-label="Spirited Away original geometric artwork"><defs><radialGradient id="sphere" cx="35%" cy="25%"><stop stop-color="#e6e9cd"/><stop offset=".4" stop-color="#9dbc98"/><stop offset="1" stop-color="#30564a"/></radialGradient><linearGradient id="shade" x2="0" y2="1"><stop stop-color="#30564a" stop-opacity="0"/><stop offset="1" stop-color="#30564a"/></linearGradient></defs><rect width="400" height="600" fill="#30564a"/><circle cx="380" cy="54" r="0.6" fill="#e6e9cd" opacity="0.16"/><circle cx="286" cy="220" r="0.6" fill="#e6e9cd" opacity="0.41"/><circle cx="310" cy="565" r="0.8" fill="#e6e9cd" opacity="0.15"/><circle cx="166" cy="550" r="1.2" fill="#e6e9cd" opacity="0.57"/><circle cx="152" cy="173" r="1.2" fill="#e6e9cd" opacity="0.02"/><circle cx="80" cy="116" r="0.6" fill="#e6e9cd" opacity="0.43"/><circle cx="198" cy="495" r="0.8" fill="#e6e9cd" opacity="0.30"/><circle cx="18" cy="131" r="0.6" fill="#e6e9cd" opacity="0.24"/><circle cx="31" cy="136" r="0.6" fill="#e6e9cd" opacity="0.16"/><circle cx="387" cy="209" r="0.6" fill="#e6e9cd" opacity="0.50"/><circle cx="170" cy="230" r="0.6" fill="#e6e9cd" opacity="0.34"/><circle cx="313" cy="443" r="0.6" fill="#e6e9cd" opacity="0.60"/><circle cx="321" cy="496" r="1.2" fill="#e6e9cd" opacity="0.45"/><circle cx="331" cy="223" r="0.6" fill="#e6e9cd" opacity="0.30"/><circle cx="355" cy="408" r="0.6" fill="#e6e9cd" opacity="0.31"/><circle cx="287" cy="211" r="0.6" fill="#e6e9cd" opacity="0.25"/><circle cx="24" cy="260" r="1.2" fill="#e6e9cd" opacity="0.41"/><circle cx="173" cy="108" r="0.6" fill="#e6e9cd" opacity="0.03"/><circle cx="334" cy="466" r="0.8" fill="#e6e9cd" opacity="0.11"/><circle cx="322" cy="141" r="0.8" fill="#e6e9cd" opacity="0.56"/><circle cx="374" cy="180" r="1.2" fill="#e6e9cd" opacity="0.26"/><circle cx="152" cy="448" r="0.6" fill="#e6e9cd" opacity="0.35"/><circle cx="109" cy="196" r="1.2" fill="#e6e9cd" opacity="0.53"/><circle cx="255" cy="433" r="0.8" fill="#e6e9cd" opacity="0.53"/><circle cx="75" cy="55" r="0.8" fill="#e6e9cd" opacity="0.40"/><circle cx="87" cy="191" r="1.2" fill="#e6e9cd" opacity="0.54"/><circle cx="167" cy="326" r="1.2" fill="#e6e9cd" opacity="0.44"/><circle cx="84" cy="382" r="0.6" fill="#e6e9cd" opacity="0.01"/><circle cx="304" cy="237" r="1.2" fill="#e6e9cd" opacity="0.25"/><circle cx="53" cy="51" r="0.8" fill="#e6e9cd" opacity="0.23"/><circle cx="119" cy="156" r="0.8" fill="#e6e9cd" opacity="0.24"/><circle cx="291" cy="464" r="0.6" fill="#e6e9cd" opacity="0.28"/><circle cx="19" cy="57" r="1.2" fill="#e6e9cd" opacity="0.32"/><circle cx="306" cy="439" r="0.8" fill="#e6e9cd" opacity="0.17"/><circle cx="100" cy="377" r="0.8" fill="#e6e9cd" opacity="0.34"/><circle cx="13" cy="512" r="0.6" fill="#e6e9cd" opacity="0.56"/><circle cx="136" cy="254" r="1.2" fill="#e6e9cd" opacity="0.40"/><circle cx="161" cy="257" r="0.8" fill="#e6e9cd" opacity="0.13"/><circle cx="128" cy="203" r="1.2" fill="#e6e9cd" opacity="0.34"/><circle cx="236" cy="51" r="1.2" fill="#e6e9cd" opacity="0.47"/><circle cx="219" cy="277" r="0.6" fill="#e6e9cd" opacity="0.41"/><circle cx="175" cy="574" r="1.2" fill="#e6e9cd" opacity="0.26"/><circle cx="307" cy="159" r="0.8" fill="#e6e9cd" opacity="0.42"/><circle cx="68" cy="359" r="0.8" fill="#e6e9cd" opacity="0.41"/><circle cx="374" cy="540" r="0.6" fill="#e6e9cd" opacity="0.19"/><circle cx="359" cy="256" r="0.8" fill="#e6e9cd" opacity="0.50"/><circle cx="252" cy="273" r="0.8" fill="#e6e9cd" opacity="0.32"/><circle cx="170" cy="48" r="0.6" fill="#e6e9cd" opacity="0.25"/><circle cx="334" cy="112" r="0.8" fill="#e6e9cd" opacity="0.13"/><circle cx="209" cy="124" r="0.6" fill="#e6e9cd" opacity="0.12"/><circle cx="177" cy="528" r="0.8" fill="#e6e9cd" opacity="0.51"/><circle cx="129" cy="182" r="1.2" fill="#e6e9cd" opacity="0.07"/><circle cx="114" cy="178" r="0.6" fill="#e6e9cd" opacity="0.32"/><circle cx="43" cy="340" r="0.8" fill="#e6e9cd" opacity="0.38"/><circle cx="37" cy="336" r="0.6" fill="#e6e9cd" opacity="0.52"/><circle cx="99" cy="473" r="0.8" fill="#e6e9cd" opacity="0.22"/><circle cx="332" cy="487" r="1.2" fill="#e6e9cd" opacity="0.00"/><circle cx="99" cy="528" r="0.8" fill="#e6e9cd" opacity="0.31"/><circle cx="73" cy="156" r="1.2" fill="#e6e9cd" opacity="0.30"/><circle cx="197" cy="552" r="0.8" fill="#e6e9cd" opacity="0.28"/><circle cx="364" cy="466" r="1.2" fill="#e6e9cd" opacity="0.37"/><circle cx="292" cy="136" r="1.2" fill="#e6e9cd" opacity="0.51"/><circle cx="293" cy="398" r="1.2" fill="#e6e9cd" opacity="0.16"/><circle cx="144" cy="459" r="0.8" fill="#e6e9cd" opacity="0.54"/><circle cx="81" cy="189" r="0.8" fill="#e6e9cd" opacity="0.18"/><text x="30" y="44" fill="#e6e9cd" opacity=".85" font-family="Arial,sans-serif" font-size="12" letter-spacing="3">NEO4FLIX COLLECTION</text><text x="30" y="70" fill="#e6e9cd" opacity=".65" font-family="Arial,sans-serif" font-size="11" letter-spacing="2">2001 · NO. 10</text><path d="M90 320 L85 155 L169 225 L232 225 L315 155 L310 320 L200 393 Z" fill="#9dbc98"/><path d="M90 310 L200 357 L310 310 L200 393Z" fill="#e6e9cd"/><circle cx="157" cy="282" r="10" fill="#30564a"/><circle cx="243" cy="282" r="10" fill="#30564a"/><path d="M182 335H218L200 355Z" fill="#30564a"/><rect x="0" y="385" width="400" height="215" fill="url(#shade)"/><text x="30" y="492" fill="#e6e9cd" font-family="Arial,sans-serif" font-size="37" font-weight="700" letter-spacing="-1.2">SPIRITED AWAY</text><path d="M30 574H370" stroke="#e6e9cd" opacity=".3"/></svg>